<?xml version="1.0" encoding="UTF-8" standalone="no"?>
<svg
   version="1.1"
   width="500"
   height="500"
   style="clip-rule:evenodd;fill-rule:evenodd;image-rendering:optimizeQuality;shape-rendering:geometricPrecision;text-rendering:geometricPrecision"
   id="svg18"
   xmlns="http://www.w3.org/2000/svg"
   xmlns:svg="http://www.w3.org/2000/svg">
  <defs
     id="defs18" />
  <g
     id="g3"
     transform="matrix(0.44033466,0,0,0.43956044,-1.5411724,-0.65934066)"
     style="display:inline">
    <path
       style="opacity:1"
       fill="#4063c8"
       d="m 532.5,1.5 c 11.655,0.65165 23.322,0.98498 35,1 112.119,7.41686 212.452,45.2502 301,113.5 133.39,109.956 200.89,251.789 202.5,425.5 -1.51,6.175 -4.67,11.342 -9.5,15.5 -19.41,10.529 -33.58,5.696 -42.5,-14.5 C 1018.32,418.59 977.99,309.923 898,216.5 799.82,110.178 677.986,56.0113 532.5,54 526.416,51.8731 521.249,48.3731 517,43.5 507.839,24.1456 513.006,10.1456 532.5,1.5 Z"
       id="path3" />
  </g>
  <g
     id="g4"
     transform="matrix(0.44033466,0,0,0.43956044,-1.5411724,-0.65934066)"
     style="display:inline">
    <path
       style="opacity:1"
       fill="#4063c8"
       d="M 4.5,611.5 C 3.16667,598.833 3.16667,586.167 4.5,573.5 11.9632,458.521 51.4632,356.187 123,266.5 233.369,135.771 374.535,70.604 546.5,71 c 8.927,3.2603 14.761,9.427 17.5,18.5 2.329,16.18 -4.171,27.013 -19.5,32.5 -107.76,-0.3 -205.093,31.033 -292,94 C 123.665,315.258 58.1648,446.758 56,610.5 c -2.6782,8.678 -8.1782,14.845 -16.5,18.5 -16.815,4.259 -28.4816,-1.574 -35,-17.5 z"
       id="path4" />
  </g>
  <g
     id="g5"
     transform="matrix(0.44033466,0,0,0.43956044,-1.5411724,-0.65934066)"
     style="display:inline">
    <path
       style="opacity:1"
       fill="#4063c8"
       d="m 531.5,146.5 c 114.507,0.023 211.34,41.023 290.5,123 70.284,77.153 104.951,168.153 104,273 -5.709,14.273 -16.209,20.439 -31.5,18.5 C 882.363,557.859 875.53,550.026 874,537.5 871.437,421.198 823.604,328.698 730.5,260 672.378,220.406 608.045,200.072 537.5,199 519.056,195.953 510.889,185.12 513,166.5 c 2.916,-9.747 9.083,-16.414 18.5,-20 z"
       id="path5" />
  </g>
  <g
     id="g6"
     transform="matrix(0.44033466,0,0,0.43956044,-1.5411724,-0.65934066)"
     style="display:inline">
    <path
       style="opacity:1"
       fill="#4063c8"
       d="m 510.5,214.5 c 11.338,-0.167 22.672,0 34,0.5 19.551,9.37 24.051,23.537 13.5,42.5 -3.619,3.615 -7.786,6.449 -12.5,8.5 -118.693,1.759 -213.193,49.926 -283.5,144.5 -40.699,59.138 -61.032,124.805 -61,197 -5.007,19.093 -17.174,26.26 -36.5,21.5 -8.112,-3.736 -13.278,-9.903 -15.5,-18.5 -0.862,-114.408 39.638,-211.241 121.5,-290.5 67.958,-62.137 147.958,-97.303 240,-105.5 z"
       id="path6" />
  </g>
  <g
     id="g7"
     transform="matrix(0.44033466,0,0,0.43956044,-1.5411724,-0.65934066)"
     style="display:inline">
    <path
       style="opacity:1"
       fill="#4063c8"
       d="m 532.5,289.5 c 96.307,1.719 169.474,43.386 219.5,125 21.861,39.17 32.195,81.17 31,126 -4.932,16.055 -15.765,22.888 -32.5,20.5 -9.833,-3.167 -16.333,-9.667 -19.5,-19.5 -1.009,-74.874 -32.843,-132.374 -95.5,-172.5 -31.89,-17.89 -66.223,-26.89 -103,-27 -16.908,-6.649 -23.075,-18.816 -18.5,-36.5 4.217,-7.726 10.384,-13.059 18.5,-16 z"
       id="path7" />
  </g>
  <g
     id="g8"
     transform="matrix(0.44033466,0,0,0.43956044,-1.5411724,-0.65934066)"
     style="display:inline">
    <path
       style="opacity:1"
       fill="#4063c8"
       d="m 520.5,357.5 c 8.726,-0.339 17.393,0.161 26,1.5 18.074,8.888 22.574,22.388 13.5,40.5 -3.903,5.368 -9.07,8.868 -15.5,10.5 -85.673,1.726 -147.173,40.893 -184.5,117.5 -10.721,26.901 -16.055,54.901 -16,84 -8.786,19.151 -22.619,23.985 -41.5,14.5 -8.564,-7.35 -12.23,-16.683 -11,-28 5.845,-94.413 49.512,-165.079 131,-212 30.981,-15.74 63.648,-25.24 98,-28.5 z"
       id="path8" />
  </g>
  <g
     id="g9"
     transform="matrix(0.44033466,0,0,0.43956044,-1.5411724,-0.65934066)"
     style="display:inline">
    <path
       style="opacity:1"
       fill="#4063c8"
       d="m 531.5,431.5 c 47.668,-0.758 81.834,20.242 102.5,63 6.886,15.991 9.22,32.658 7,50 -6.156,13.498 -16.656,19.331 -31.5,17.5 -8.291,-2.624 -14.458,-7.791 -18.5,-15.5 0.67,-24.162 -8.83,-42.995 -28.5,-56.5 -8.462,-4.365 -17.462,-6.365 -27,-6 -18.585,-5.327 -25.752,-17.493 -21.5,-36.5 3.708,-7.753 9.542,-13.086 17.5,-16 z"
       id="path9" />
  </g>
  <g
     id="g10"
     transform="matrix(0.44033466,0,0,0.43956044,-1.5411724,-0.65934066)"
     style="display:inline">
    <path
       style="opacity:1"
       fill="#4063c8"
       d="m 522.5,499.5 c 7.341,-0.166 14.674,0 22,0.5 17.569,6.973 23.402,19.473 17.5,37.5 -3.29,6.621 -8.457,11.121 -15.5,13.5 -40.143,1.477 -60.977,22.31 -62.5,62.5 -6.511,13.005 -17.011,18.172 -31.5,15.5 -13.341,-5.002 -19.674,-14.668 -19,-29 2.988,-43.648 24.321,-74.648 64,-93 8.307,-2.988 16.641,-5.488 25,-7.5 z"
       id="path10" />
  </g>
  <g
     id="g11"
     transform="matrix(0.44033466,0,0,0.43956044,-1.5411724,-0.65934066)"
     style="display:inline">
    <path
       style="opacity:1"
       fill="#4063c8"
       d="m 677.5,510.5 c 16.949,-1.457 27.782,5.876 32.5,22 -0.019,47.231 -21.186,81.064 -63.5,101.5 -15.752,6.269 -32.085,8.603 -49,7 -14.237,-5.628 -20.404,-16.128 -18.5,-31.5 2.624,-8.291 7.791,-14.458 15.5,-18.5 21.816,0.853 39.649,-6.981 53.5,-23.5 6.748,-11.407 10.082,-23.741 10,-37 3.351,-9.85 9.851,-16.517 19.5,-20 z"
       id="path11" />
  </g>
  <g
     id="g12"
     transform="matrix(0.44033466,0,0,0.43956044,-1.5411724,-0.65934066)"
     style="display:inline">
    <path
       style="opacity:1"
       fill="#4063c8"
       d="m 819.5,510.5 c 14.231,-1.471 24.398,4.196 30.5,17 2.264,87.638 -31.57,157.804 -101.5,210.5 -45.003,31.42 -95.003,46.42 -150,45 -17.609,-7.049 -23.442,-19.549 -17.5,-37.5 4.189,-7.346 10.355,-12.179 18.5,-14.5 59.027,0.06 108.86,-21.107 149.5,-63.5 33.971,-39.894 50.971,-86.227 51,-139 3.545,-9.384 10.045,-15.384 19.5,-18 z"
       id="path12" />
  </g>
  <g
     id="g13"
     transform="matrix(0.44033466,0,0,0.43956044,-1.5411724,-0.65934066)"
     style="display:inline">
    <path
       style="opacity:1"
       fill="#4063c8"
       d="m 962.5,510.5 c 16.949,-1.457 27.782,5.876 32.5,22 -1.964,136.104 -57.464,244.271 -166.5,324.5 -69.072,47.797 -145.739,70.797 -230,69 -18.515,-8.542 -23.348,-22.042 -14.5,-40.5 4.476,-6.491 10.643,-10.325 18.5,-11.5 124.842,-2.817 221.342,-55.983 289.5,-159.5 34.253,-57.903 51.586,-120.57 52,-188 4.217,-7.726 10.384,-13.059 18.5,-16 z"
       id="path13" />
  </g>
  <g
     id="g14"
     transform="matrix(0.44033466,0,0,0.43956044,-1.5411724,-0.65934066)"
     style="display:inline">
    <path
       style="opacity:1"
       fill="#4063c8"
       d="m 1106.5,511.5 c 16.16,-1.84 27,4.826 32.5,20 -1.22,169.249 -65.72,308.749 -193.5,418.5 -100.968,81.22 -216.635,121.55 -347,121 -18.612,-7.72 -24.112,-20.89 -16.5,-39.5 4.415,-6.07 10.248,-10.24 17.5,-12.5 140.791,-1.17 259.958,-52.004 357.5,-152.5 85.51,-94.446 128.85,-205.78 130,-334 2.92,-10.42 9.42,-17.42 19.5,-21 z"
       id="path14" />
  </g>
  <g
     id="g15"
     transform="matrix(0.44033466,0,0,0.43956044,-1.5411724,-0.65934066)"
     style="display:inline">
    <path
       style="opacity:1"
       fill="#4063c8"
       d="m 92.5,578.5 c 13.904,-0.966 24.071,4.701 30.5,17 1.157,131.542 45.824,245.542 134,342 95.83,97.31 212.33,147.14 349.5,149.5 11.647,1.31 19.48,7.48 23.5,18.5 3.087,17.02 -3.413,28.18 -19.5,33.5 C 457.844,1138.59 328.011,1084.42 221,976.5 122.284,870.661 72.6178,744.995 72,599.5 c 3.4191,-10.436 10.2524,-17.436 20.5,-21 z"
       id="path15" />
  </g>
  <g
     id="g16"
     transform="matrix(0.44033466,0,0,0.43956044,-1.5411724,-0.65934066)"
     style="display:inline">
    <path
       style="opacity:1"
       fill="#4063c8"
       d="m 236.5,578.5 c 14.789,-1.359 25.289,4.641 31.5,18 0.718,102.233 37.885,188.399 111.5,258.5 65.789,57.833 142.789,87.166 231,88 17.066,5.961 23.233,17.794 18.5,35.5 -6.821,13.434 -17.821,19.101 -33,17 -129.604,-6.771 -232.604,-62.104 -309,-166 -47.946,-69.429 -71.279,-146.429 -70,-231 3.386,-9.884 9.886,-16.551 19.5,-20 z"
       id="path16" />
  </g>
  <g
     id="g17"
     transform="matrix(0.44033466,0,0,0.43956044,-1.5411724,-0.65934066)"
     style="display:inline">
    <path
       style="opacity:1"
       fill="#4063c8"
       d="m 380.5,578.5 c 15.435,-1.036 25.935,5.631 31.5,20 1.339,83.577 38.839,144.411 112.5,182.5 25.974,11.992 53.308,17.992 82,18 14.748,2.246 22.748,10.746 24,25.5 0.523,8.114 -2.143,14.947 -8,20.5 -3.452,3.06 -7.452,5.06 -12,6 -90.073,-0.449 -160.573,-37.616 -211.5,-111.5 -27.002,-42.684 -40.002,-89.351 -39,-140 1.556,-4.78 3.889,-9.113 7,-13 4.183,-3.336 8.683,-6.003 13.5,-8 z"
       id="path17" />
  </g>
  <g
     id="g18"
     transform="matrix(0.44033466,0,0,0.43956044,-1.5411724,-0.65934066)"
     style="display:inline">
    <path
       style="opacity:1"
       fill="#4063c8"
       d="m 521.5,578.5 c 16.895,-1.478 27.728,5.855 32.5,22 -0.432,28.338 12.735,46.838 39.5,55.5 7.013,0.945 14.013,1.945 21,3 16.484,9.754 20.317,23.254 11.5,40.5 -6.734,8.028 -15.401,11.695 -26,11 -49.688,-5.706 -81.688,-32.373 -96,-80 -2.171,-10.914 -2.838,-21.914 -2,-33 3.748,-9.249 10.248,-15.583 19.5,-19 z"
       id="path18" />
  </g>
</svg>
